<svg width="512" height="512" viewBox="0 0 512 512" fill="none" xmlns="http://www.w3.org/2000/svg">
  <!-- Clavier de gauche (incliné vers la droite, se croise avec l'autre) -->
  <g transform="rotate(-45 256 256)">
    <!-- Forme principale du clavier -->
    <rect
      x="120"
      y="180"
      width="80"
      height="200"
      rx="8"
      fill="none"
      stroke="#8b5cf6"
      stroke-width="12"
      stroke-linecap="round"
      stroke-linejoin="round"
    />
    <!-- Touches - Colonne de gauche -->
    <rect x="130" y="200" width="12" height="20" rx="2" fill="#8b5cf6" opacity="0.7" />
    <rect x="130" y="230" width="12" height="20" rx="2" fill="#8b5cf6" opacity="0.7" />
    <rect x="130" y="260" width="12" height="20" rx="2" fill="#8b5cf6" opacity="0.7" />
    <rect x="130" y="290" width="12" height="20" rx="2" fill="#8b5cf6" opacity="0.7" />
    <rect x="130" y="320" width="12" height="20" rx="2" fill="#8b5cf6" opacity="0.7" />
    <!-- Touches - Colonne du milieu -->
    <rect x="150" y="200" width="12" height="20" rx="2" fill="#8b5cf6" opacity="0.9" />
    <rect x="150" y="230" width="12" height="20" rx="2" fill="#8b5cf6" opacity="0.9" />
    <rect x="150" y="260" width="12" height="20" rx="2" fill="#8b5cf6" opacity="0.9" />
    <rect x="150" y="290" width="12" height="20" rx="2" fill="#8b5cf6" opacity="0.9" />
    <rect x="150" y="320" width="12" height="20" rx="2" fill="#8b5cf6" opacity="0.9" />
    <!-- Touches - Colonne de droite -->
    <rect x="170" y="200" width="12" height="20" rx="2" fill="#8b5cf6" opacity="0.7" />
    <rect x="170" y="230" width="12" height="20" rx="2" fill="#8b5cf6" opacity="0.7" />
    <rect x="170" y="260" width="12" height="20" rx="2" fill="#8b5cf6" opacity="0.7" />
    <rect x="170" y="290" width="12" height="20" rx="2" fill="#8b5cf6" opacity="0.7" />
    <rect x="170" y="320" width="12" height="20" rx="2" fill="#8b5cf6" opacity="0.7" />
  </g>

  <!-- Clavier de droite (incliné vers la gauche, se croise avec l'autre) -->
  <g transform="rotate(45 256 256)">
    <!-- Forme principale du clavier -->
    <rect
      x="312"
      y="180"
      width="80"
      height="200"
      rx="8"
      fill="none"
      stroke="#8b5cf6"
      stroke-width="12"
      stroke-linecap="round"
      stroke-linejoin="round"
    />
    <!-- Touches - Colonne de gauche -->
    <rect x="322" y="200" width="12" height="20" rx="2" fill="#8b5cf6" opacity="0.7" />
    <rect x="322" y="230" width="12" height="20" rx="2" fill="#8b5cf6" opacity="0.7" />
    <rect x="322" y="260" width="12" height="20" rx="2" fill="#8b5cf6" opacity="0.7" />
    <rect x="322" y="290" width="12" height="20" rx="2" fill="#8b5cf6" opacity="0.7" />
    <rect x="322" y="320" width="12" height="20" rx="2" fill="#8b5cf6" opacity="0.7" />
    <!-- Touches - Colonne du milieu -->
    <rect x="342" y="200" width="12" height="20" rx="2" fill="#8b5cf6" opacity="0.9" />
    <rect x="342" y="230" width="12" height="20" rx="2" fill="#8b5cf6" opacity="0.9" />
    <rect x="342" y="260" width="12" height="20" rx="2" fill="#8b5cf6" opacity="0.9" />
    <rect x="342" y="290" width="12" height="20" rx="2" fill="#8b5cf6" opacity="0.9" />
    <rect x="342" y="320" width="12" height="20" rx="2" fill="#8b5cf6" opacity="0.9" />
    <!-- Touches - Colonne de droite -->
    <rect x="362" y="200" width="12" height="20" rx="2" fill="#8b5cf6" opacity="0.7" />
    <rect x="362" y="230" width="12" height="20" rx="2" fill="#8b5cf6" opacity="0.7" />
    <rect x="362" y="260" width="12" height="20" rx="2" fill="#8b5cf6" opacity="0.7" />
    <rect x="362" y="290" width="12" height="20" rx="2" fill="#8b5cf6" opacity="0.7" />
    <rect x="362" y="320" width="12" height="20" rx="2" fill="#8b5cf6" opacity="0.7" />
  </g>
</svg>

